Simulation
nRows=40
nColumns=15
endheader
time  TH_x TH_y TH_z SC_y  SC_z  SC_x  AC_y  AC_z  AC_x  GH_y  GH_z  GH_yy  EL_x  PS_y
0.0  0.000000  0.000000  0.000000  -21.86017668179824  0.18303309522769226  7.612182323288859  60.59545336079925  -3.2162097268019294  -10.389353631328685  6.873176771160127  18.401924792112684  24.69169693677453  32.29921042826799  120.000000
0.025  0.000000  0.000000  0.000000  -21.98673442298505  0.2447782192799914  7.746208350266018  60.52699636627283  -3.0061077818479407  -10.55589480195285  7.020361009806647  18.48102109333914  24.163299503219875  31.965615497859606  120.000000
0.05  0.000000  0.000000  0.000000  -22.094389053613963  0.2816908887173104  7.876997068487446  60.48418534895247  -2.8219587698984556  -10.66990326185966  7.191175652918349  18.555004736511787  23.627597027555233  31.677239360653033  120.000000
0.07500000000000001  0.000000  0.000000  0.000000  -22.19478261744565  0.2962728124854913  8.004171583660538  60.47489862065958  -2.662111697496559  -10.737197611543468  7.379637087096188  18.631600948602753  23.06624125644013  31.436673268482878  120.000000
0.1  0.000000  0.000000  0.000000  -22.300421542553906  0.3039820621570652  8.12784766961315  60.51175149984877  -2.5206417151154796  -10.762832179986697  7.580014511439455  18.72289199136188  22.463244145736397  31.250220404899842  120.000000
0.125  0.000000  0.000000  0.000000  -22.420740419739772  0.31700146265620394  8.25027616227422  60.601601011751924  -2.3855104368590654  -10.755440184128354  7.783598030313761  18.844493229094756  21.808043152326473  31.11275724478957  120.000000
0.15000000000000002  0.000000  0.000000  0.000000  -22.56574256713705  0.34446482788654154  8.37619170780181  60.74164648290639  -2.243387968302063  -10.721564338907642  7.978240340039061  19.010861686703905  21.096004255321105  31.015278691401544  120.000000
0.17500000000000002  0.000000  0.000000  0.000000  -22.74109479621771  0.3923019064222619  8.510930235046754  60.92331746445355  -2.083536252316543  -10.664756557399341  8.150650394079763  19.233648384777847  20.328740159259056  30.947279337795813  120.000000
0.2  0.000000  0.000000  0.000000  -22.947502600061497  0.46266457901434804  8.659104573106424  61.13908170395912  -1.897858118526493  -10.587526577697627  8.288194353384062  19.521928245916367  19.513373160894506  30.900086608230627  120.000000
0.225  0.000000  0.000000  0.000000  -23.182195095701665  0.5563084152495591  8.82405017203359  61.38389417069695  -1.6809028400690162  -10.491160646908003  8.379089682341013  19.882183723847184  18.660259231297914  30.86859021156324  120.000000
0.25  0.000000  0.000000  0.000000  -23.441730813285883  0.6728504703800109  9.008078325929535  61.655389918184646  -1.4287353040547501  -10.376424377309721  8.412542802966442  20.318381473279697  17.78126096728584  30.85014719445501  120.000000
0.275  0.000000  0.000000  0.000000  -23.723450836978735  0.810682223624364  9.212093713570695  61.953342471287364  -1.1380465425131896  -10.24377761167873  8.378333733639638  20.83230908365778  16.887432949038093  30.843404441734947  120.000000
0.30000000000000004  0.000000  0.000000  0.000000  -24.026496056181617  0.9666427648445041  9.435803682147963  62.279394697134705  -0.805764845767477  -10.093252819441101  8.267049510721959  21.423845611557727  15.987410271077001  30.846959370632934  120.000000
0.325  0.000000  0.000000  0.000000  -24.35154821072568  1.1359174481378815  9.678716321716243  62.636208222221605  -0.4298150398442337  -9.924914014893957  8.070569599270486  22.09149663642485  15.086629147516932  30.858643206091998  120.000000
0.35000000000000003  0.000000  0.000000  0.000000  -24.69989950501504  1.312569664547226  9.94027862669459  63.02700807262016  -0.009407088303073817  -9.739298299375548  7.78289388834961  22.8329265084789  14.187100569116652  30.875237823002585  120.000000
0.375  0.000000  0.000000  0.000000  -25.0725120184555  1.4903533938698632  10.21945475409544  63.454227453519  0.455365760776934  -9.537496545186732  7.4013227065129525  23.645385517183286  13.28858605276485  30.8925105360909  120.000000
0.4  0.000000  0.000000  0.000000  -25.468901140562146  1.663551853031267  10.514389195026117  63.918575305164  0.9635383757788586  -9.321341216198233  6.927250170288954  24.52624525518886  12.389410440558164  30.90537047350583  120.000000
0.42500000000000004  0.000000  0.000000  0.000000  -25.886377372746068  1.8276193536795182  10.822466689318725  64.41801023669794  1.5133319633096436  -9.093314814783968  6.366764572934562  25.473213035948376  11.48789602541697  30.908152469368563  120.000000
0.45  0.000000  0.000000  0.000000  -26.31978171569026  1.979357334811925  11.139960914256198  64.94767108703921  2.102339639705347  -8.856018040169003  5.730383529707332  26.48461628028962  10.582711687030887  30.894955847713888  120.000000
0.47500000000000003  0.000000  0.000000  0.000000  -26.762068104135064  2.116745693670243  11.462203171251618  65.5003389538254  2.7274933593761217  -8.61157060228428  5.03207946044066  27.559333161562456  9.672998504391005  30.86017213411482  120.000000
0.5  0.000000  0.000000  0.000000  -27.20478203659159  2.239275818916081  11.784352265984815  66.06756348700158  3.38413846444551  -8.36184116547313  4.287846562264597  28.696507597101963  8.758065649797562  30.799198912376596  120.000000
0.525  0.000000  0.000000  0.000000  -27.639207435427547  2.3475449548557146  12.10187351859115  66.63992025229375  4.065942182808882  -8.108486877592282  3.514103951217039  29.894831697637162  7.837860385910181  30.709098644976695  120.000000
0.55  0.000000  0.000000  0.000000  -28.05769629692428  2.442925218051353  12.410465270551375  67.20727807036485  4.765121067188781  -7.852859402896404  2.7260869655258397  31.15184976294202  6.913079543228434  30.5894264687063  120.000000
0.5750000000000001  0.000000  0.000000  0.000000  -28.45411757476629  2.5279788524833777  12.706042194196167  67.75963099221964  5.472402871843252  -7.596067815305353  1.9368813132641467  32.46362684425637  5.985341983871912  30.442674914174315  120.000000
0.6000000000000001  0.000000  0.000000  0.000000  -28.82407661931486  2.6055216187599175  12.985278146531503  68.28716291022228  6.178092921207786  -7.338756915190073  1.1571940819877138  33.8245574461066  5.05816817502745  30.273691424374192  120.000000
0.625  0.000000  0.000000  0.000000  -29.165201549691176  2.6790864285111566  13.245683327106589  68.78126350159846  6.87286268175804  -7.0809946288501004  0.39529588564118107  35.227838103293436  4.1362260766598595  30.088829331879907  120.000000
0.65  0.000000  0.000000  0.000000  -29.47772826495465  2.7534069898933473  13.48577177711054  69.23536988446651  7.548317654934155  -6.822911999819667  -0.34264118543243893  36.66601327575681  3.2250003771143456  29.894638153885456  120.000000
0.675  0.000000  0.000000  0.000000  -29.764284325119725  2.8326272151976015  13.70565357425642  69.64443982440545  8.197850411613809  -6.5651290218706935  -1.0521820289518644  38.13090824127632  2.3308634639707986  29.69595494969544  120.000000
0.7000000000000001  0.000000  0.000000  0.000000  -30.028836254808237  2.9199809163165615  13.907008458023949  70.00555537924075  8.816625156362674  -6.308446534965197  -1.7300000925750278  39.61384466573455  1.4599193340176564  29.494989418864463  120.000000
0.7250000000000001  0.000000  0.000000  0.000000  -30.27628897229393  3.0180485730648368  14.09285951579419  70.31889864638813  9.401462101377891  -6.053240529935185  -2.3727536858630365  41.10606122755341  0.6178186893080864  29.291544826829455  120.000000
0.75  0.000000  0.000000  0.000000  -30.51160931202865  3.1282720696844484  14.266739795019268  70.5869694071963  9.950715783593779  -5.799538549396047  -2.9767999669152014  42.599109541432576  -0.19078268952347466  29.083649581253784  120.000000
0.775  0.000000  0.000000  0.000000  -30.7390235145956  3.250576931020071  14.43192972680092  70.8135754010455  10.464002097902902  -5.547736050437105  -3.5390203938231184  44.084756627823936  -0.9627040778386592  28.867982954034524  120.000000
0.8  0.000000  0.000000  0.000000  -30.962030821833952  3.3835062488852925  14.591074764840721  71.00330056301857  10.94159675359098  -5.2986413903230565  -4.057414900130854  45.55520356113265  -1.696661295665567  28.640307697653437  120.000000
0.8250000000000001  0.000000  0.000000  0.000000  -31.18319617669493  3.524650606788024  14.746052007759156  71.16150273523786  11.384080634246962  -5.053310894320661  -4.531659309130513  47.00329389416275  -2.393804666174544  28.396247319713126  120.000000
0.8500000000000001  0.000000  0.000000  0.000000  -31.403821193559253  3.670902954657881  14.8981121055632  71.294009620445  11.792342595988242  -4.8128982151276345  -4.963082584541003  48.422593064240644  -3.0574821808601276  28.131936850826275  120.000000
0.875  0.000000  0.000000  0.000000  -31.623992355251428  3.818917583545129  15.04806388489836  71.40695243156875  12.167621513192383  -4.578423864092105  -5.354436586808135  49.807258114056026  -3.692847998288615  27.844641203745432  120.000000
0.9  0.000000  0.000000  0.000000  -31.842931168849898  3.9656108790283384  15.196596240139607  71.50628476199148  12.511608472159189  -4.350537145929013  -5.709350408637362  51.151694804162815  -4.305914411506475  27.533344734986077  120.000000
0.925  0.000000  0.000000  0.000000  -32.05947711634785  4.10858290633264  15.34454499637162  71.59739393099692  12.826481755008183  -4.129369992399604  -6.031879170440558  52.45020862820539  -4.902747914126552  27.199247178083123  120.000000
0.9500000000000001  0.000000  0.000000  0.000000  -32.27259693469178  4.2463882249308105  15.493110088407901  71.68479134108395  13.114911084934505  -3.914378770648354  -6.326099390247726  53.69671576146493  -5.488826640219265  26.846047874499597  120.000000
0.9750000000000001  0.000000  0.000000  0.000000  -32.4816590538022  4.3786070006914555  15.643940315641396  71.7720211744562  13.379952915910762  -3.704343344747912  -6.59589698040677  54.88475789242016  -6.068791840601025  26.47981185939085  120.000000
